{"title":"Supergirl (1984) - DVDRip - MP3 - ENG","uid":4724253,"size":842042470,"categoryP":"video","categoryS":"movies","magnet":"?xt=urn:btih:1840404bcda13158ef8a728f8a93ac05179efa50&amp;dn=Supergirl+%281984%29+-+DVDRip+-+MP3+-+ENG&amp;tr=udp%3A%2F%2Ftracker.openbittorrent.com%3A80&amp;tr=udp%3A%2F%2Fopen.demonii.com%3A1337&amp;tr=udp%3A%2F%2Ftracker.coppersurfer.tk%3A6969&amp;tr=udp%3A%2F%2Fexodus.desync.com%3A6969","seeders":2,"leechers":0,"uploader":"206andy206","files":-1,"time":1234661185,"description":"IMDB: http://www.imdb.com/title/tt0088206/\nUser Rating: 4.0/10   5,466 votes\nRelease Date: 19 July 1984 (UK)\nGenre: Action | Adventure | Comedy | Fantasy | Sci-Fi\nTagline: Her first great adventure.\n\nPlot: \nAfter mistakenly losing the Omegahedron, Argo City's life-sustaining power source, Kara, Superman's cousin,  takes off on a misssion to Earth to retrieve it and save the city. Upon reaching Earth, she is transformed into Supergirl and carries the alias Linda Lee. She must deal with the evil ambitions of a wicked witch, Selina (Faye Dunaway), and her meddling ex-boyfriend Nigel, who plan on ruling the Earth with help from the power of the Omegahedron, which they found when it crashed landed on Earth. Assisted by Jimmy Olsen and Lucy Lane, Lois Lane's sister, Supergirl is off on an adventure to save the Earth and Argo City\n\nCast:\nFaye Dunaway\t... \tSelena\nHelen Slater\t... \tKara / Supergirl / Linda Lee\nPeter O'Toole\t... \tZaltar\nMia Farrow\t... \tAlura\nBrenda Vaccaro\t... \tBianca\nPeter Cook\t... \tNigel\nSimon Ward\t... \tZor-El\nMarc McClure\t... \tJimmy Olsen\nHart Bochner\t... \tEthan\nMaureen Teefy\t... \tLucy Lane\n\n\n\nGeneral\nComplete name                    : Supergirl (1984) - DVDRip - MP3 - ENG.avi\nFormat                           : AVI\nSource                           : Pal DVD\nFile size                        : 803 MiB\nDuration                         : 1h 59mn\nOveral bit rate                  : 939 Kbps\nLanguage                         : English\n\nVideo\nCodec ID                         : XVID\nDuration                         : 1h 59mn\nBit rate                         : 820 Kbps\nWidth                            : 624 pixels\nHeight                           : 272 pixels\nDisplay aspect ratio             : 2.25\nFrame rate                       : 25.000 fps\nResolution                       : 8 bits\nColorimetry                      : 4:2:0\nScan type                        : Progressive\nBits/(Pixel*Frame)               : 0.193\nStream size                      : 701 MiB (87%)\n\nAudio\nFormat                           : MPEG Audio\nFormat version                   : Version 1\nFormat profile                   : Layer 3\nCodec ID/Hint                    : MP3\nDuration                         : 1h 59mn\nBit rate mode                    : Constant\nBit rate                         : 112 Kbps\nChannel(s)                       : 2 channels\nSampling rate                    : 44.1 KHz\nResolution                       : 16 bits\nVideo delay                      : 18ms\nStream size                      : 95.8 MiB (12%)\nWriting library                  : LAME3.98.2\n\n\nTrackers:\n &lt;a href=&quot;\nhttp://tpb.tracker.thepiratebay.se:80/announce&quot; rel=&quot;nofollow&quot; target=&quot;_NEW&quot;&gt;\nhttp://tpb.tracker.thepiratebay.se:80/announce&lt;/a&gt; &lt;a href=&quot;\nhttp://denis.stalker.h3q.com:6969/announce&quot; rel=&quot;nofollow&quot; target=&quot;_NEW&quot;&gt;\nhttp://denis.stalker.h3q.com:6969/announce&lt;/a&gt; &lt;a href=&quot;\nhttp://www.torrent-downloads.to:5869/announce&quot; rel=&quot;nofollow&quot; target=&quot;_NEW&quot;&gt;\nhttp://www.torrent-downloads.to:5869/announce&lt;/a&gt; &lt;a href=&quot;\nhttp://vip.tracker.thepiratebay.se/announce&quot; rel=&quot;nofollow&quot; target=&quot;_NEW&quot;&gt;\nhttp://vip.tracker.thepiratebay.se/announce&lt;/a&gt;\n\n\nInfo Hash: 1840404BCDA13158EF8A728F8A93AC05179EFA50\n\n\n\nEnj","torrent":{"xt":"urn:btih:1840404bcda13158ef8a728f8a93ac05179efa50","amp;dn":"Supergirl+%281984%29+-+DVDRip+-+MP3+-+ENG","amp;tr":["udp%3A%2F%2Ftracker.openbittorrent.com%3A80","udp%3A%2F%2Fopen.demonii.com%3A1337","udp%3A%2F%2Ftracker.coppersurfer.tk%3A6969","udp%3A%2F%2Fexodus.desync.com%3A6969"],"infoHash":"1840404bcda13158ef8a728f8a93ac05179efa50","infoHashBuffer":{"type":"Buffer","data":[24,64,64,75,205,161,49,88,239,138,114,143,138,147,172,5,23,158,250,80]},"announce":[],"urlList":[]}}